<?xml version="1.0" encoding="utf-8"?>
<!-- Generator: Adobe Illustrator 16.0.0, SVG Export Plug-In . SVG Version: 6.00 Build 0)  -->
<!DOCTYPE svg PUBLIC "-//W3C//DTD SVG 1.1//EN" "http://www.w3.org/Graphics/SVG/1.1/DTD/svg11.dtd">
<svg version="1.1" id="Layer_1" xmlns="http://www.w3.org/2000/svg" xmlns:xlink="http://www.w3.org/1999/xlink" x="0px" y="0px"
	 width="173.818px" height="44.818px" viewBox="0 0 173.818 44.818" enable-background="new 0 0 173.818 44.818"
	 xml:space="preserve">
<g>
	<path fill="#FFFFFF" d="M0,40.918l1.92-3.36c2.52,1.98,6.78,3.54,11.219,3.54c6,0,8.46-2.04,8.46-5.16
		c0-8.22-20.459-1.74-20.459-14.219c0-5.16,4.44-9,12.479-9c4.08,0,8.52,1.14,11.16,2.94l-1.86,3.42c-2.76-1.92-6.06-2.7-9.3-2.7
		c-5.7,0-8.219,2.22-8.219,5.22c0,8.52,20.459,2.1,20.459,14.219c0,5.46-4.8,9-13.02,9C7.62,44.818,2.58,43.138,0,40.918z"/>
	<path fill="#FFFFFF" d="M82.798,12.959L70.858,44.518h-4.02l-9.959-25.859l-9.959,25.859h-4.02L31.02,12.959h4.08L45,39.778
		l10.14-26.819h3.66l10.08,26.819l10.02-26.819H82.798z"/>
	<path fill="#FFFFFF" d="M92.58,12.959h4.26v31.559h-4.26V12.959z"/>
	<path fill="#FFFFFF" d="M107.7,40.918l1.92-3.36c2.52,1.98,6.78,3.54,11.219,3.54c6,0,8.46-2.04,8.46-5.16
		c0-8.22-20.459-1.74-20.459-14.219c0-5.16,4.44-9,12.479-9c4.08,0,8.52,1.14,11.16,2.94l-1.86,3.42c-2.76-1.92-6.06-2.7-9.3-2.7
		c-5.7,0-8.22,2.22-8.22,5.22c0,8.52,20.459,2.1,20.459,14.219c0,5.46-4.8,9-13.02,9C115.319,44.818,110.279,43.138,107.7,40.918z"
		/>
	<path fill="#FFFFFF" d="M173.818,26.219v18.299h-4.26V26.639c0-6.66-3.48-10.08-9.479-10.08c-6.78,0-11.04,4.2-11.04,11.399v16.56
		h-4.26V0h4.26v18.479c2.34-3.66,6.479-5.76,11.819-5.76C168.539,12.719,173.818,17.159,173.818,26.219z"/>
</g>
</svg>
